<svg width="81" height="40" viewBox="0 0 81 40" fill="none" xmlns="http://www.w3.org/2000/svg">
<path d="M17.5757 15.3653H19.9999V18.1936H17.5757V23.931H13.9394V20.3754C11.3535 20.9007 8.78785 21.1835 5.05049 21.1835H0.808078V18.4158H2.42424V12.6785H1.21212V9.9512H12.3636V12.6785H11.1515V18.1128C12.1414 17.9916 13.0707 17.8502 13.9394 17.6885V9.74918H17.5757V15.3653ZM2.80807 28.739V22.739H6.52523V25.9309H17.9797V28.739H2.80807ZM6.06059 18.4158C6.56564 18.3956 7.05048 18.3956 7.51513 18.3754V12.6785H6.06059V18.4158ZM40.2019 16.7795V19.6077H37.7777V28.739H34.1413V25.5673C31.5555 26.3148 28.9898 26.739 25.2524 26.739H21.6161V10.3552H31.9595V13.0825H25.2524V23.9714C28.9494 23.9714 31.5757 23.6077 34.1413 22.8805V9.74918H37.7777V16.7795H40.2019ZM60.4039 16.7795V19.6077H57.9796V28.739H54.3433V9.74918H57.9796V16.7795H60.4039ZM41.8181 26.739V10.3552H52.3837V26.739H41.8181ZM45.4544 23.9714H48.7877V13.1229H45.4544V23.9714ZM75.8584 9.74918H79.3937V20.6986H75.8584V9.74918ZM60.8079 18.537C63.1715 18.0522 64.9493 17.3047 65.9392 16.3552L62.02 16.5976V13.9714H66.7877V12.6785H62.4241V9.9512H70.323V13.5876H71.4745V9.85019H74.9089V20.6986H71.4745V16.4158H69.7978C68.7271 18.4966 66.0402 20.2138 61.9594 21.2441L60.8079 18.537ZM63.0099 25.8501C67.9998 25.6683 69.4543 24.638 69.4543 22.8805V21.3451H73.0907V23.2037C73.0907 23.6885 73.0301 24.1532 72.9089 24.5774C75.2523 24.739 77.5755 25.0623 79.3937 25.4865L78.424 28.739C76.3432 28.0118 73.4341 27.3047 71.0907 26.9208C69.4139 28.0522 66.7271 28.5976 63.3938 28.739L63.0099 25.8501Z" fill="#3692FF"/>
</svg>
