<svg width="72" height="72" viewBox="0 0 72 72" fill="none" xmlns="http://www.w3.org/2000/svg">
<rect width="72" height="72" fill="white"/>
<path d="M6.66335 36.142V41H5.07067V32.8182H6.59943V34.1499H6.70064C6.88885 33.7166 7.18359 33.3686 7.58487 33.1058C7.9897 32.843 8.49929 32.7116 9.11364 32.7116C9.67116 32.7116 10.1594 32.8288 10.5785 33.0632C10.9975 33.294 11.3224 33.6385 11.5533 34.0966C11.7841 34.5547 11.8995 35.1211 11.8995 35.7958V41H10.3068V35.9876C10.3068 35.3945 10.1523 34.9311 9.84339 34.5973C9.53445 34.2599 9.11009 34.0913 8.57031 34.0913C8.20099 34.0913 7.87251 34.1712 7.58487 34.331C7.30078 34.4908 7.07528 34.7251 6.90838 35.0341C6.74503 35.3395 6.66335 35.7088 6.66335 36.142ZM17.4819 41.1651C16.7148 41.1651 16.0455 40.9893 15.4737 40.6378C14.902 40.2862 14.4581 39.7944 14.142 39.1623C13.826 38.5302 13.668 37.7915 13.668 36.9464C13.668 36.0977 13.826 35.3555 14.142 34.7198C14.4581 34.0842 14.902 33.5906 15.4737 33.239C16.0455 32.8874 16.7148 32.7116 17.4819 32.7116C18.2489 32.7116 18.9183 32.8874 19.4901 33.239C20.0618 33.5906 20.5057 34.0842 20.8217 34.7198C21.1378 35.3555 21.2958 36.0977 21.2958 36.9464C21.2958 37.7915 21.1378 38.5302 20.8217 39.1623C20.5057 39.7944 20.0618 40.2862 19.4901 40.6378C18.9183 40.9893 18.2489 41.1651 17.4819 41.1651ZM17.4872 39.8281C17.9844 39.8281 18.3963 39.6967 18.723 39.4339C19.0497 39.1712 19.2912 38.8214 19.4474 38.3846C19.6072 37.9478 19.6871 37.4666 19.6871 36.9411C19.6871 36.419 19.6072 35.9396 19.4474 35.5028C19.2912 35.0625 19.0497 34.7092 18.723 34.4428C18.3963 34.1765 17.9844 34.0433 17.4872 34.0433C16.9865 34.0433 16.571 34.1765 16.2408 34.4428C15.9141 34.7092 15.6708 35.0625 15.511 35.5028C15.3548 35.9396 15.2766 36.419 15.2766 36.9411C15.2766 37.4666 15.3548 37.9478 15.511 38.3846C15.6708 38.8214 15.9141 39.1712 16.2408 39.4339C16.571 39.6967 16.9865 39.8281 17.4872 39.8281ZM27.0433 41V32.8182H28.636V41H27.0433ZM27.8477 31.5558C27.5707 31.5558 27.3327 31.4634 27.1339 31.2788C26.9386 31.0906 26.8409 30.8668 26.8409 30.6076C26.8409 30.3448 26.9386 30.1211 27.1339 29.9364C27.3327 29.7482 27.5707 29.6541 27.8477 29.6541C28.1246 29.6541 28.3608 29.7482 28.5561 29.9364C28.755 30.1211 28.8544 30.3448 28.8544 30.6076C28.8544 30.8668 28.755 31.0906 28.5561 31.2788C28.3608 31.4634 28.1246 31.5558 27.8477 31.5558ZM30.7787 41V32.8182H32.3074V34.1499H32.4086C32.5791 33.6989 32.8579 33.3473 33.2449 33.0952C33.632 32.8395 34.0954 32.7116 34.6352 32.7116C35.1821 32.7116 35.6402 32.8395 36.0095 33.0952C36.3824 33.3509 36.6576 33.7024 36.8351 34.1499H36.9204C37.1157 33.7131 37.4264 33.3651 37.8525 33.1058C38.2787 32.843 38.7865 32.7116 39.376 32.7116C40.1182 32.7116 40.7236 32.9442 41.1924 33.4094C41.6647 33.8746 41.9008 34.576 41.9008 35.5135V41H40.3082V35.6626C40.3082 35.1087 40.1572 34.7074 39.8554 34.4588C39.5535 34.2102 39.1931 34.0859 38.7741 34.0859C38.2556 34.0859 37.8525 34.2457 37.5649 34.5653C37.2773 34.8814 37.1334 35.288 37.1334 35.7852V41H35.5461V35.5614C35.5461 35.1175 35.4076 34.7607 35.1306 34.4908C34.8536 34.2209 34.4932 34.0859 34.0493 34.0859C33.7474 34.0859 33.4687 34.1658 33.213 34.3256C32.9608 34.4819 32.7567 34.7003 32.6004 34.9808C32.4477 35.2614 32.3714 35.5863 32.3714 35.9556V41H30.7787ZM46.4165 41.1811C45.8981 41.1811 45.4293 41.0852 45.0103 40.8935C44.5913 40.6982 44.2592 40.4158 44.0142 40.0465C43.7727 39.6772 43.652 39.2244 43.652 38.6882C43.652 38.2266 43.7408 37.8466 43.9183 37.5483C44.0959 37.25 44.3356 37.0138 44.6374 36.8398C44.9393 36.6658 45.2766 36.5344 45.6495 36.4457C46.0224 36.3569 46.4023 36.2894 46.7894 36.2433C47.2795 36.1864 47.6772 36.1403 47.9826 36.1048C48.288 36.0657 48.5099 36.0036 48.6484 35.9183C48.7869 35.8331 48.8562 35.6946 48.8562 35.5028V35.4656C48.8562 35.0004 48.7248 34.6399 48.462 34.3842C48.2028 34.1286 47.8157 34.0007 47.3008 34.0007C46.7646 34.0007 46.342 34.1197 46.033 34.3576C45.7276 34.592 45.5163 34.853 45.3991 35.1406L43.9023 34.7997C44.0799 34.3026 44.3391 33.9013 44.68 33.5959C45.0245 33.2869 45.4205 33.0632 45.8679 32.9247C46.3153 32.7827 46.7859 32.7116 47.2795 32.7116C47.6062 32.7116 47.9524 32.7507 48.3182 32.8288C48.6875 32.9034 49.032 33.0419 49.3516 33.2443C49.6747 33.4467 49.9393 33.7362 50.1452 34.1126C50.3512 34.4854 50.4542 34.9702 50.4542 35.5668V41H48.8988V39.8814H48.8349C48.7319 40.0874 48.5774 40.2898 48.3714 40.4886C48.1655 40.6875 47.9009 40.8526 47.5778 40.984C47.2546 41.1154 46.8675 41.1811 46.4165 41.1811ZM46.7628 39.9027C47.2031 39.9027 47.5795 39.8157 47.892 39.6417C48.2081 39.4677 48.4478 39.2404 48.6112 38.9599C48.7781 38.6758 48.8615 38.3722 48.8615 38.049V36.9943C48.8047 37.0511 48.6946 37.1044 48.5312 37.1541C48.3714 37.2003 48.1886 37.2411 47.9826 37.2766C47.7766 37.3086 47.576 37.3388 47.3807 37.3672C47.1854 37.392 47.022 37.4134 46.8906 37.4311C46.5817 37.4702 46.2994 37.5359 46.0437 37.6282C45.7915 37.7205 45.5891 37.8537 45.4364 38.0277C45.2873 38.1982 45.2127 38.4254 45.2127 38.7095C45.2127 39.1037 45.3583 39.402 45.6495 39.6044C45.9407 39.8033 46.3118 39.9027 46.7628 39.9027ZM56.0059 44.2386C55.3561 44.2386 54.7968 44.1534 54.328 43.983C53.8628 43.8125 53.4829 43.587 53.1881 43.3065C52.8934 43.0259 52.6732 42.7188 52.5276 42.3849L53.8966 41.8203C53.9925 41.9766 54.1203 42.1417 54.2801 42.3157C54.4434 42.4933 54.6636 42.6442 54.9406 42.7685C55.2211 42.8928 55.5816 42.9549 56.0219 42.9549C56.6256 42.9549 57.1246 42.8075 57.5187 42.5128C57.9129 42.2216 58.11 41.7564 58.11 41.1172V39.5085H58.0088C57.9129 39.6825 57.7744 39.8761 57.5933 40.0891C57.4157 40.3022 57.1707 40.4869 56.8582 40.6431C56.5457 40.7994 56.1391 40.8775 55.6384 40.8775C54.9921 40.8775 54.4097 40.7266 53.8912 40.4247C53.3763 40.1193 52.968 39.6701 52.6661 39.0771C52.3678 38.4805 52.2187 37.7472 52.2187 36.8771C52.2187 36.0071 52.366 35.2614 52.6608 34.6399C52.9591 34.0185 53.3675 33.5426 53.8859 33.2124C54.4044 32.8786 54.9921 32.7116 55.6491 32.7116C56.1569 32.7116 56.567 32.7969 56.8795 32.9673C57.192 33.1342 57.4353 33.3295 57.6093 33.5533C57.7868 33.777 57.9236 33.9741 58.0194 34.1445H58.1366V32.8182H59.6974V41.1811C59.6974 41.8842 59.534 42.4613 59.2073 42.9123C58.8806 43.3633 58.4385 43.6971 57.8809 43.9137C57.327 44.1303 56.702 44.2386 56.0059 44.2386ZM55.99 39.5565C56.4481 39.5565 56.8351 39.4499 57.1512 39.2369C57.4708 39.0202 57.7123 38.7113 57.8756 38.31C58.0425 37.9052 58.126 37.4205 58.126 36.8558C58.126 36.3054 58.0443 35.8207 57.8809 35.4016C57.7176 34.9826 57.4779 34.6559 57.1618 34.4215C56.8458 34.1836 56.4552 34.0646 55.99 34.0646C55.5106 34.0646 55.1111 34.1889 54.7915 34.4375C54.4719 34.6825 54.2304 35.0163 54.067 35.4389C53.9072 35.8615 53.8273 36.3338 53.8273 36.8558C53.8273 37.392 53.909 37.8626 54.0724 38.2674C54.2357 38.6722 54.4772 38.9883 54.7968 39.2156C55.1199 39.4428 55.5177 39.5565 55.99 39.5565ZM65.3596 41.1651C64.5535 41.1651 63.8593 40.9929 63.2769 40.6484C62.6981 40.3004 62.2506 39.8121 61.9346 39.1836C61.6221 38.5515 61.4658 37.8111 61.4658 36.9624C61.4658 36.1243 61.6221 35.3857 61.9346 34.7464C62.2506 34.1072 62.691 33.6083 63.2556 33.2496C63.8238 32.891 64.4878 32.7116 65.2478 32.7116C65.7094 32.7116 66.1569 32.788 66.5901 32.9407C67.0233 33.0934 67.4122 33.3331 67.7567 33.6598C68.1011 33.9865 68.3728 34.4109 68.5716 34.9329C68.7705 35.4513 68.8699 36.0817 68.8699 36.8239V37.3885H62.366V36.1953H67.3092C67.3092 35.7763 67.224 35.4052 67.0535 35.082C66.8831 34.7553 66.6434 34.4979 66.3344 34.3097C66.029 34.1214 65.6704 34.0273 65.2584 34.0273C64.811 34.0273 64.4204 34.1374 64.0866 34.3576C63.7563 34.5742 63.5006 34.8583 63.3195 35.2099C63.142 35.5579 63.0532 35.9361 63.0532 36.3445V37.2766C63.0532 37.8235 63.1491 38.2887 63.3408 38.6722C63.5361 39.0558 63.8078 39.3487 64.1558 39.5511C64.5038 39.75 64.9104 39.8494 65.3756 39.8494C65.6775 39.8494 65.9527 39.8068 66.2013 39.7216C66.4498 39.6328 66.6647 39.5014 66.8458 39.3274C67.0269 39.1534 67.1654 38.9386 67.2613 38.6829L68.7687 38.9545C68.648 39.3984 68.4314 39.7873 68.1189 40.1211C67.8099 40.4513 67.4211 40.7088 66.9523 40.8935C66.4871 41.0746 65.9562 41.1651 65.3596 41.1651Z" fill="#7C7B7B"/>
</svg>
